# Blender 5.0.0
# www.blender.org
o Utah_Teapot
v 2.625000 2.043750 0.000000
v 2.518750 1.945313 0.225000
v 2.412500 1.846875 0.000000
v 3.000000 1.650000 0.000000
v 2.850000 1.650000 0.225000
v 2.700000 1.650000 0.000000
v 1.567762 2.096612 0.000000
v 1.522231 1.988709 0.225000
v 1.666682 1.872692 0.000000
v 2.731250 1.007812 0.000000
v 2.634375 1.103906 0.225000
v 2.537500 1.200000 0.000000
v 2.000000 0.750000 0.000000
v 1.769713 0.467255 0.225000
v 1.791595 0.320164 0.000000
v -2.800000 2.250000 0.000000
v -3.000000 2.250000 0.112500
v -3.200000 2.250000 0.000000
v -2.825000 2.306250 0.000000
v -3.126563 2.316797 0.150000
v -3.428125 2.327344 0.000000
v -2.700000 2.250000 0.000000
v -3.000000 2.250000 0.187500
v -3.300000 2.250000 0.000000
v -2.387500 1.650000 0.000000
v -2.537500 1.471875 0.341250
v -2.687500 1.293750 0.000000
v -1.866684 1.365919 0.000000
v -1.765295 0.910010 0.483013
v -1.955518 0.750000 0.107390
v -1.965708 0.677029 0.000000
v 0.000000 3.000000 0.000000
v 0.325000 2.831250 0.000000
v 0.229810 2.831250 0.229809
v 0.000000 2.831250 0.325000
v 0.200000 2.550000 0.000000
v 0.141421 2.550000 0.141421
v 0.000000 2.550000 0.200000
v -0.229810 2.831250 0.229809
v -0.325000 2.831250 0.000000
v -0.141421 2.550000 0.141421
v -0.200000 2.550000 0.000000
v 0.825000 2.400000 0.000000
v 0.583363 2.400000 0.583363
v 0.000000 2.400000 0.825000
v 1.300000 2.250000 0.000000
v 0.919239 2.250000 0.919238
v 0.000000 2.250000 1.300000
v -0.583363 2.400000 0.583363
v -0.825000 2.400000 0.000000
v -0.919239 2.250000 0.919238
v -1.300000 2.250000 0.000000
v 1.400000 2.250000 0.000000
v 0.989950 2.250000 0.989949
v 0.000000 2.250000 1.400000
v 1.403125 2.348438 0.000000
v 0.992159 2.348438 0.992159
v 0.000000 2.348438 1.403125
v 1.500000 2.250000 0.000000
v 1.060660 2.250000 1.060660
v 0.000000 2.250000 1.500000
v -0.989950 2.250000 0.989949
v -1.400000 2.250000 0.000000
v -0.992159 2.348438 0.992159
v -1.403125 2.348438 0.000000
v -1.060660 2.250000 1.060660
v -1.500000 2.250000 0.000000
v 1.843750 1.471875 0.000000
v 1.303728 1.471875 1.303728
v 0.000000 1.471875 1.843750
v 1.414214 0.750000 1.414214
v 0.000000 0.750000 2.000000
v -1.303728 1.471875 1.303728
v -1.843750 1.471875 0.000000
v -1.414214 0.750000 1.414214
v 1.750000 0.234375 0.000000
v 1.237437 0.234375 1.237437
v 0.000000 0.234375 1.750000
v 1.500000 0.000000 0.000000
v 1.060660 -0.000000 1.060660
v 0.000000 -0.000000 1.500000
v -1.237437 0.234375 1.237437
v -1.750000 0.234375 0.000000
v -1.060660 -0.000000 1.060660
v -1.500000 0.000000 0.000000
vn 0.0286 0.1863 0.9821
vn 0.3882 0.7863 0.4806
vn 0.8123 0.1339 0.5676
vn 0.2801 0.0921 0.9556
vn -0.2626 -0.8518 0.4533
vn -0.7798 -0.2693 0.5652
vn 0.5330 0.7168 0.4495
vn 0.7714 0.3963 0.4979
vn 0.6646 -0.4017 0.6300
vn 0.6660 -0.5304 0.5245
vn 0.1051 -0.0908 0.9903
vn -0.7007 0.4838 0.5243
vn 0.2306 0.6864 0.6897
vn 0.7609 -0.4556 0.4621
vn 0.7321 -0.5354 0.4212
vn -0.3274 -0.0129 -0.9448
vn -0.4480 -0.2945 -0.8441
vn -0.0655 0.9732 -0.2204
vn -0.3159 0.7124 0.6266
vn 0.2797 0.8187 -0.5015
vn -0.4906 0.2817 0.8246
vn 0.5502 0.5296 0.6456
vn -0.0424 0.3104 0.9497
vn -0.4968 -0.4892 0.7168
vn 0.5205 0.5820 0.6248
vn -0.1483 0.0193 0.9888
vn -0.6046 -0.4997 0.6203
vn -0.4013 0.6275 0.6672
vn -0.8376 0.1370 0.5289
vn -0.7142 -0.5214 0.4671
vn -0.7484 -0.5134 0.4199
vn -0.0000 0.9387 0.3447
vn 0.8902 0.2675 0.3687
vn 0.6772 0.2878 0.6772
vn -0.0000 0.2878 0.9577
vn 0.7955 0.5086 0.3295
vn 0.5957 0.5387 0.5957
vn -0.0000 0.5387 0.8425
vn -0.6772 0.2878 0.6772
vn -0.8902 0.2675 0.3687
vn -0.5957 0.5387 0.5957
vn -0.7955 0.5086 0.3295
vn 0.2737 0.9551 0.1134
vn 0.1948 0.9613 0.1948
vn -0.0000 0.9613 0.2755
vn 0.2988 0.9462 0.1238
vn 0.2129 0.9536 0.2129
vn -0.0000 0.9536 0.3011
vn -0.1948 0.9613 0.1948
vn -0.2737 0.9551 0.1134
vn -0.2129 0.9536 0.2129
vn -0.2988 0.9462 0.1238
vn -0.7068 0.0317 -0.7067
vn -0.9235 0.0293 -0.3825
vn -0.1384 0.9887 -0.0573
vn -0.0980 0.9903 -0.0980
vn -0.0000 0.0317 -0.9995
vn -0.0000 0.9903 -0.1386
vn 0.7935 0.5122 0.3287
vn 0.5941 0.5423 0.5941
vn -0.0000 0.5423 0.8402
vn 0.7068 0.0317 -0.7067
vn 0.0980 0.9903 -0.0980
vn 0.9235 0.0293 -0.3825
vn 0.1384 0.9887 -0.0573
vn -0.5941 0.5423 0.5941
vn -0.7935 0.5122 0.3287
vn 0.6740 0.3024 0.6740
vn -0.0000 0.3024 0.9532
vn 0.8866 0.2812 0.3672
vn 0.7028 -0.1104 0.7028
vn -0.0000 -0.1104 0.9939
vn -0.6740 0.3024 0.6740
vn -0.8866 0.2812 0.3672
vn -0.7028 -0.1105 0.7028
vn 0.5798 -0.5724 0.5798
vn -0.0000 -0.5724 0.8200
vn 0.7764 -0.5419 0.3216
vn 0.6580 -0.7019 0.2726
vn 0.4836 -0.7295 0.4836
vn -0.0000 -0.7295 0.6839
vn -0.5798 -0.5724 0.5798
vn -0.4836 -0.7295 0.4836
vn -0.7762 -0.5419 0.3222
vn -0.6580 -0.7019 0.2726
s 1
f 2//1 5//4 4//3 1//2
f 3//5 6//6 5//4 2//1
f 7//7 8//8 2//1
f 7//7 2//1 1//2
f 9//9 2//1 8//8
f 9//9 3//5 2//1
f 5//4 11//11 10//10 4//3
f 6//6 12//12 11//11 5//4
f 13//13 14//14 11//11
f 13//13 11//11 12//12
f 14//14 15//15 10//10
f 14//14 10//10 11//11
f 17//16 20//19 19//18 16//17
f 18//20 21//21 20//19 17//16
f 20//19 23//23 22//22 19//18
f 21//21 24//24 23//23 20//19
f 23//23 26//26 25//25 22//22
f 24//24 27//27 26//26 23//23
f 28//28 26//26 29//29
f 28//28 25//25 26//26
f 30//30 29//29 26//26
f 30//30 26//26 27//27
f 30//30 27//27 31//31
f 32//32 34//34 33//33
f 32//32 35//35 34//34
f 34//34 37//37 36//36 33//33
f 35//35 38//38 37//37 34//34
f 32//32 39//39 35//35
f 32//32 40//40 39//39
f 39//39 41//41 38//38 35//35
f 40//40 42//42 41//41 39//39
f 37//37 44//44 43//43 36//36
f 38//38 45//45 44//44 37//37
f 44//44 47//47 46//46 43//43
f 45//45 48//48 47//47 44//44
f 41//41 49//49 45//45 38//38
f 42//42 50//50 49//49 41//41
f 49//49 51//51 48//48 45//45
f 50//50 52//52 51//51 49//49
f 54//53 57//56 56//55 53//54
f 55//57 58//58 57//56 54//53
f 57//56 60//60 59//59 56//55
f 58//58 61//61 60//60 57//56
f 62//62 64//63 58//58 55//57
f 63//64 65//65 64//63 62//62
f 64//63 66//66 61//61 58//58
f 65//65 67//67 66//66 64//63
f 61//61 70//69 69//68 60//60
f 69//68 71//71 13//13 68//70
f 70//69 72//72 71//71 69//68
f 8//8 7//7 59//59
f 8//8 59//59 60//60
f 8//8 60//60 69//68
f 8//8 68//70 9//9
f 8//8 69//68 68//70
f 66//66 73//73 70//69 61//61
f 67//67 74//74 73//73 66//66
f 73//73 75//75 72//72 70//69
f 28//28 29//29 75//75
f 28//28 75//75 73//73
f 28//28 73//73 74//74
f 29//29 30//30 75//75
f 72//72 78//77 77//76 71//71
f 77//76 80//80 79//79 76//78
f 78//77 81//81 80//80 77//76
f 14//14 13//13 71//71
f 14//14 71//71 77//76
f 14//14 76//78 15//15
f 14//14 77//76 76//78
f 75//75 82//82 78//77 72//72
f 82//82 84//83 81//81 78//77
f 83//84 85//85 84//83 82//82
f 30//30 31//31 83//84
f 30//30 83//84 82//82
f 30//30 82//82 75//75
